<svg width="21" height="21" viewBox="0 0 21 21" fill="none" xmlns="http://www.w3.org/2000/svg">
<g id="asterisk" clip-path="url(#clip0_87_106)">
<path id="Vector" d="M19.6141 13.703L13.7813 10.5L19.6141 7.29697C20.0979 7.03131 20.2687 6.41989 19.9928 5.94193L19.1938 4.55803C18.9178 4.08007 18.3029 3.92232 17.8309 4.20845L12.1406 7.65836L12.2832 1.00546C12.295 0.453674 11.8509 0 11.299 0H9.70103C9.14912 0 8.70505 0.453674 8.7169 1.00546L8.85939 7.65836L3.16909 4.20849C2.69716 3.92237 2.08221 4.08011 1.80626 4.55807L1.00728 5.94197C0.731323 6.41993 0.902194 7.03135 1.38597 7.29701L7.21876 10.5L1.38593 13.703C0.902153 13.9687 0.731282 14.5801 1.00728 15.0581L1.80626 16.442C2.08221 16.9199 2.69716 17.0777 3.16909 16.7916L8.85939 13.3416L8.71686 19.9945C8.70505 20.5463 9.14912 21 9.70103 21H11.299C11.8509 21 12.295 20.5463 12.2832 19.9945L12.1406 13.3416L17.8309 16.7915C18.3029 17.0776 18.9178 16.9199 19.1938 16.4419L19.9928 15.058C20.2687 14.5801 20.0979 13.9687 19.6141 13.703Z" fill="#5B5E60"/>
</g>
<defs>
<clipPath id="clip0_87_106">
<rect width="21" height="21" fill="white"/>
</clipPath>
</defs>
</svg>
