<svg width="33" height="33" viewBox="0 0 33 33" fill="none" xmlns="http://www.w3.org/2000/svg">
<g id="Group 20">
<path id="Vector" d="M14.64 14.6394C13.8281 15.4514 13.8281 16.7674 14.64 17.5787C15.4514 18.3907 16.768 18.3907 17.5794 17.5787C18.3913 16.7667 18.3913 15.4507 17.5794 14.6394C16.7674 13.8281 15.4514 13.8281 14.64 14.6394ZM16.1094 0C7.21219 0 0 7.21219 0 16.1094C0 25.0066 7.21219 32.2188 16.1094 32.2188C25.0066 32.2188 32.2188 25.0066 32.2188 16.1094C32.2188 7.21219 25.0066 0 16.1094 0ZM24.3031 9.61691L20.0178 18.9935C19.8106 19.4469 19.4469 19.8106 18.9935 20.0178L9.61756 24.3031C8.53602 24.7974 7.42136 23.6827 7.91568 22.6012L12.2016 13.2246C12.4088 12.7712 12.7725 12.4075 13.2259 12.2003L22.6018 7.91503C23.6834 7.42136 24.7974 8.53537 24.3031 9.61691Z" fill="white"/>
</g>
</svg>
