<svg width="78" height="76" viewBox="0 0 78 76" fill="none" xmlns="http://www.w3.org/2000/svg">
<g id="game-icons:pirate-captain">
<g id="Group 9">
<path id="Vector" d="M31.1467 3.90527C23.8726 8.35297 21.1769 14.1624 18.2959 20.8708C15.3586 27.7096 12.2695 35.4191 4.10669 42.5222C5.03206 44.1282 7.11865 45.6839 10.1083 47.0064C11.747 45.6289 13.3912 44.0849 14.9541 42.5363L10.0014 43.4973L9.46423 40.893C12.9002 40.1099 16.5472 39.5186 19.7126 38.9044C19.9407 37.0974 20.2804 35.6236 20.8285 34.0292C26.84 32.6968 33.4576 30.3513 38.9309 30.296C46.446 30.9587 51.4465 32.4809 57.0991 34.0473C57.5305 35.6813 57.8724 37.4416 58.0523 38.8857C61.32 39.3124 64.8799 40.2105 68.3975 40.893L67.8604 43.4973L62.9077 42.5363C64.4705 44.0849 66.1147 45.6289 67.7535 47.0065C70.7431 45.6839 72.8297 44.1282 73.7551 42.5222C65.5922 35.4192 62.5032 27.7096 59.5659 20.8708C56.6848 14.1624 53.9893 8.35297 46.7152 3.90527C45.05 6.49966 42.129 10.4189 38.9309 10.4754C35.2306 10.0465 32.9229 6.72538 31.1465 3.90527H31.1467ZM26.0046 10.918H28.742V13.4025L33.1877 15.7549C34.4985 13.8206 36.5389 12.5409 38.9309 12.5409C41.3228 12.5409 43.3632 13.8206 44.6741 15.7549L49.1198 13.4025V10.918H51.8571V13.131H54.1382V15.7866H50.3303L45.8203 18.1734C46.2348 19.7075 46.3358 21.1324 46.0914 22.5832L53.8789 26.7041H57.1797V29.3597H54.8986V31.5727H52.1613V28.82L45.2494 25.1625C44.0124 27.6352 41.7082 29.3597 38.9309 29.3597C36.1536 29.3597 33.8493 27.6352 32.6124 25.1624L25.7005 28.8202V31.5729H22.9632V29.3599H20.6821V26.7043H23.9828L31.7705 22.5833C31.5241 21.1046 31.6464 19.5034 32.0415 18.1736L27.5313 15.7868H23.7235V13.1312H26.0046V10.918ZM38.9309 15.1965C36.5657 15.1965 34.3687 17.6222 34.3687 20.9503C34.3687 24.2784 36.5657 26.7041 38.9309 26.7041C41.2961 26.7041 43.4931 24.2784 43.4931 20.9503C43.4931 17.6222 41.2961 15.1965 38.9309 15.1965ZM35.129 18.5898H37.8664V20.9503H35.129V18.5898ZM39.9954 18.5898H42.7327V20.9503H39.9954V18.5898ZM36.4977 21.983H41.364V24.6386H36.4977V21.983ZM23.0131 36.1869C22.826 36.8549 22.6789 37.5996 22.5652 38.4013C34.393 35.9691 43.146 35.9154 55.2058 38.3886C55.0961 37.6364 54.9631 36.8963 54.7991 36.1734C42.4016 31.9206 35.427 31.9454 23.0131 36.1869ZM22.3193 41.1177C22.2548 42.5134 22.2683 44.021 22.3462 45.5909C23.069 45.5967 23.7673 45.5955 24.4489 45.5895C25.4511 43.6777 32.6305 42.0647 35.9446 44.6461C40.6625 43.7575 44.1167 42.2354 47.5376 40.0394C38.8974 38.5394 29.0508 40.1849 22.3193 41.1177ZM37.052 47.0771C36.6323 51.2242 33.6957 53.9979 29.1982 53.9979C26.5506 53.9979 24.933 51.735 24.4705 48.2411C23.8384 48.2479 23.1965 48.2514 22.5334 48.2474C23.0289 52.9327 23.9068 57.9527 24.8463 62.0876C26.7974 61.9291 29.4658 60.9244 31.8791 59.6238C34.1872 58.3798 36.3141 56.8721 37.5145 55.8294C36.4302 55.7386 35.3637 55.5515 34.3191 55.2805L35.0265 52.7154C37.5681 53.3751 40.1123 53.4598 42.8177 52.7198L43.5601 55.2758C42.5126 55.5624 41.4389 55.7497 40.3541 55.8351C41.5557 56.8776 43.6791 58.3821 45.9827 59.6238C48.4043 60.9289 51.0832 61.9365 53.0358 62.0898C54.6311 55.3575 55.9307 47.8456 55.4897 41.1105L52.1575 40.6487C49.3845 42.1213 42.9671 45.853 37.052 47.0771ZM58.2872 41.6399C58.3549 42.9393 58.3683 44.253 58.3262 45.5758C59.4807 46.9039 60.8116 48.2215 62.3172 49.5314C61.8561 49.2812 61.3348 49.1293 60.7703 49.1293C58.0612 49.433 56.9319 51.8262 56.9094 53.9979C56.9963 56.3577 58.4137 58.8151 60.7703 58.8665C61.0318 58.8665 61.2835 58.8326 61.525 58.7728C62.328 61.8828 63.5858 64.1343 66.1371 66.0558C62.8797 68.359 56.4747 68.5794 53.055 68.1995C52.2525 68.9787 51.4272 69.7355 50.58 70.4688C57.6922 71.3304 67.3439 71.3707 69.9055 65.3232C66.9052 63.6371 64.846 60.8346 64.2302 58.4112C68.384 59.3013 71.8674 56.9553 71.9308 53.2873C66.7501 51.6373 60.8294 43.8613 58.2872 41.6399ZM19.5313 41.6483C15.0402 46.3584 10.3989 50.3976 5.15143 53.7915C8.22088 57.036 13.282 57.3762 16.5866 56.4999C12.5632 62.5205 9.58422 65.0878 4.21238 68.5623C11.7009 70.6317 20.6733 72.0747 27.3262 70.5075C26.4956 69.7898 25.6863 69.0495 24.8991 68.2873C20.0821 68.8715 14.8963 68.5547 10.412 67.6082C16.106 63.3006 18.4755 58.8837 20.6142 54.7373C20.4747 53.8742 20.3459 53.0095 20.228 52.1434L18.8535 52.8102C15.2961 54.5358 11.9304 54.7594 9.77172 53.9474C13.8438 51.1671 17.1193 48.3672 19.5844 45.5192C19.5149 44.1866 19.497 42.8936 19.5316 41.6483H19.5313ZM51.0415 44.5557L52.9768 46.4335C52.0031 47.3783 50.8181 47.9997 49.576 48.409V50.8997H44.7097V49.1667C43.766 49.198 42.9225 49.183 42.2765 49.183V46.5273C44.7097 46.5273 49.2536 46.2903 51.0415 44.5557ZM63.4938 50.523C65.1542 51.8842 67.0021 53.2382 69.0402 54.588C68.0867 56.2419 65.7422 56.1098 64.3928 55.7163C64.8547 53.9998 64.4688 51.8116 63.4938 50.523ZM60.7703 51.7849C61.6225 52.0669 61.8854 53.2524 61.8939 53.9979C61.8278 54.5969 61.6587 56.1917 60.7703 56.2109C59.9182 55.9288 59.6551 54.7432 59.6468 53.9979C59.7129 53.3989 59.882 51.804 60.7703 51.7849ZM38.9309 58.8829C37.9775 60.149 36.781 61.3372 35.4514 62.4049C36.8133 61.9305 37.8268 61.6614 38.9344 61.6642C40.0462 61.6671 41.0584 61.9417 42.4241 62.4161C41.0889 61.3456 39.8876 60.1534 38.9309 58.8829ZM44.0664 63.6273L43.3179 65.5688C41.463 64.896 40.394 64.5257 39.6036 64.386L44.5831 71.6321C46.8334 70.1829 48.7983 68.5351 50.6773 66.7492C48.1407 65.9435 45.9637 64.9139 44.0664 63.6274V63.6273ZM33.7923 63.6293C31.718 64.9292 29.3093 66.1958 27.1847 66.7492C29.1781 68.613 31.0942 70.2403 33.2786 71.6321L38.2617 64.3806C37.4731 64.5151 36.409 64.8829 34.5498 65.5667L33.7923 63.6293Z" fill="#F8F8F8"/>
</g>
</g>
</svg>
